<svg width="15" height="16" viewBox="0 0 15 16" fill="none" xmlns="http://www.w3.org/2000/svg">
<path d="M3.49891 7.2202H5.05891V8.7802H3.49891V7.2202ZM14.4189 3.3202V14.2402C14.4189 15.0982 13.7169 15.8002 12.8589 15.8002H1.93891C1.52517 15.8002 1.12838 15.6358 0.83582 15.3433C0.543263 15.0507 0.378906 14.6539 0.378906 14.2402L0.386706 3.3202C0.386706 2.4622 1.07311 1.7602 1.93891 1.7602H2.71891V0.200195H4.27891V1.7602H10.5189V0.200195H12.0789V1.7602H12.8589C13.7169 1.7602 14.4189 2.4622 14.4189 3.3202ZM1.93891 4.8802H12.8589V3.3202H1.93891V4.8802ZM12.8589 14.2402V6.4402H1.93891V14.2402H12.8589ZM9.73891 8.7802H11.2989V7.2202H9.73891V8.7802ZM6.61891 8.7802H8.17891V7.2202H6.61891V8.7802Z" fill="#555555"/>
</svg>
