<svg width="29" height="32" fill="none" xmlns="http://www.w3.org/2000/svg"><g clip-path="url(#a)"><path d="M28.833 7.448a.509.509 0 0 0-.39-.165C22.251 7.283 14.945.22 14.89.166a.543.543 0 0 0-.78 0C14.054.22 6.748 7.283.558 7.283a.509.509 0 0 0-.39.165.498.498 0 0 0-.168.386C0 8.717.725 29.352 14.389 32h.223C28.274 29.352 29 8.717 29 7.834a.498.498 0 0 0-.167-.386ZM14.5 30.897C3.012 28.579 1.338 11.64 1.171 8.33 6.86 8 12.883 2.759 14.5 1.324 16.117 2.76 22.14 8 27.829 8.331c-.168 3.31-1.84 20.248-13.329 22.566Z" fill="#172A32"/><ellipse cx="14.5" cy="15.659" rx="8.286" ry="8.17" fill="#0BF"/><path d="M12.485 16.566a.543.543 0 0 0-.781 0 .53.53 0 0 0 0 .772l1.625 1.586a.51.51 0 0 0 .39.166.509.509 0 0 0 .39-.166l4.187-4.13a.53.53 0 0 0 0-.773.543.543 0 0 0-.78 0l-3.741 3.69-1.29-1.145Z" fill="#172A32"/><path d="M5.577 16c0 4.855 4.015 8.828 8.923 8.828s8.923-3.973 8.923-8.828c0-4.855-4.015-8.828-8.923-8.828S5.577 11.145 5.577 16Zm16.73 0c0 4.248-3.513 7.724-7.807 7.724-4.294 0-7.808-3.476-7.808-7.724s3.514-7.724 7.808-7.724c4.294 0 7.808 3.476 7.808 7.724Z" fill="#172A32"/><circle cx="23.364" cy="25.364" r="1.864" fill="#D9CA21" stroke="#FFFCD8"/></g><defs><clipPath id="a"><path fill="#fff" d="M0 0h29v32H0z"/></clipPath></defs></svg>