<svg width="40" height="39" fill="none" xmlns="http://www.w3.org/2000/svg"><path d="M23.5 9.5c3 0 3.9 2 3.5 2-.4 0-.833.666-1 1h2l.5 1.5-.5 1.5 1.5 1.5v2.5l1 1.5v1.5l3 2.5 1 1-6.5 8-6-5-4.5-.5-6 5L5 25c5.538-5.01 4.5-7 6-5.5 2.5 1 1.5 2.5 3.5 1.5l-2.6-1.445c-.827-.252-1.582-.578-1.9-1.055-1.036-1.558 1-4 1-4.5 2-3 2.5-5 6-4 2.5-1.5 5.047-.5 6.5-.5Z" fill="#0BF"/><path d="m39.376 26.025-1.963-1.584a1.686 1.686 0 0 0-2.359.239l-.509.62-3.43-2.784a2.428 2.428 0 0 0-.309-2.61 2.388 2.388 0 0 0-.741-.584c.445-.716.518-1.616.209-2.25-.418-.86-1.1-1.178-1.645-1.318.568-.8 1.095-1.952.05-3.194a2.384 2.384 0 0 0-1.518-.846c.245-.71.195-1.49-.34-2.155-.364-.454-.946-.751-1.591-.814-.646-.063-1.259.108-1.732.486l-2.944-.968c-.81-.265-1.532-.23-2.154.108-.577.31-1.032.869-1.359 1.656l-.95-.792a2.313 2.313 0 0 0-1.695-.53 2.313 2.313 0 0 0-1.581.804c-.4.468-.59 1.062-.536 1.679.013.17.05.337.1.494a2.29 2.29 0 0 0-1.754 3.221 2.278 2.278 0 0 0-1.177.739 2.304 2.304 0 0 0-.01 2.96 2.247 2.247 0 0 0-.963.675 2.306 2.306 0 0 0-.272 2.564L4.858 24.6a1.69 1.69 0 0 0-2.277-.153L.618 26.03a1.647 1.647 0 0 0-.24 2.334l8.256 10.024a1.67 1.67 0 0 0 1.132.603 1.666 1.666 0 0 0 1.227-.364l1.963-1.584c.718-.58.822-1.629.24-2.335l-1.035-1.26 5.625-4.463c.291.032.573.063.85.1.909.107 1.8.21 2.672.18l5.98 4.858-.481.585c-.586.71-.477 1.76.24 2.335l1.964 1.584c.3.242.672.373 1.054.373.059 0 .113 0 .172-.009.446-.045.85-.256 1.132-.603l8.257-10.023c.582-.711.473-1.76-.24-2.335l-.01-.005ZM18.982 9.42c.318-.176.708-.18 1.19-.023l2.227.729-2.64 2.173-1.736-1.453c.231-.725.559-1.215.959-1.431v.005Zm-5.24.859c.218-.257.532-.392.85-.392.254 0 .509.086.718.261l3.89 3.253c.227.189.363.454.386.747a1.087 1.087 0 0 1-1.009 1.183 1.133 1.133 0 0 1-.809-.252l-3.89-3.253a1.089 1.089 0 0 1-.386-.746c-.023-.293.068-.58.254-.801h-.004Zm-1.854 2.956c.19-.225.459-.36.754-.383a1.14 1.14 0 0 1 .81.252l3.207 2.695c.468.391.527 1.093.132 1.557-.19.225-.459.36-.75.382-.3.027-.581-.067-.809-.252l-.154-.13-2.358-1.993a1.769 1.769 0 0 0-.146-.113l-.545-.459a1.102 1.102 0 0 1-.132-1.556h-.009Zm-1.513 3.171c.19-.225.454-.36.75-.382h.095c.227 0 .44.072.627.202l2.454 2.06.186.158c.468.396.527 1.098.132 1.566a1.08 1.08 0 0 1-.75.382 1.098 1.098 0 0 1-.79-.247l-1.346-1.143a2.117 2.117 0 0 0-.104-.08l-1.122-.95a1.112 1.112 0 0 1-.132-1.566Zm-.973 3.631a1.07 1.07 0 0 1 .746-.382c.272-.023.531.058.745.22l1.386 1.174s.018.014.027.018l.686.585c.468.396.527 1.102.132 1.57a1.1 1.1 0 0 1-1.545.126l-2.05-1.74a1.118 1.118 0 0 1-.131-1.571h.004Zm2.786 16.07-1.963 1.584a.47.47 0 0 1-.654-.068L1.308 27.604a.456.456 0 0 1 .068-.648l1.963-1.583A.474.474 0 0 1 4 25.44l.314.382 6.512 7.909 1.427 1.732a.456.456 0 0 1-.069.648l.005-.005Zm6.589-8.224a64.807 64.807 0 0 0-1.118-.126.604.604 0 0 0-.44.13l-5.83 4.621-5.763-6.996 3.372-2.78 1.795 1.525a2.31 2.31 0 0 0 1.495.549c.063 0 .127 0 .195-.01a2.29 2.29 0 0 0 1.577-.809c.6-.71.69-1.683.318-2.479a2.293 2.293 0 0 0 1.686-2.573h.073a2.312 2.312 0 0 0 1.577-.806 2.286 2.286 0 0 0 .54-1.61c.073.004.146.018.223.018.068 0 .132 0 .2-.01a2.332 2.332 0 0 0 1.581-.805c.4-.467.591-1.061.541-1.678a2.372 2.372 0 0 0-.236-.836l3.694-3.046c.218-.18.532-.266.86-.234.317.031.604.17.767.369.464.576.1 1.403-.5 1.92a.598.598 0 0 0-.063.842.608.608 0 0 0 .85.072c.472-.391 1.172-.31 1.585.185.605.72.31 1.246-.468 2.2l-.05.063c-.268.328-.209.616-.154.755.154.392.559.45.85.495.527.077.986.185 1.258.747.164.333.046 1.192-.618 1.548a.604.604 0 0 0-.295.697c.082.27.336.454.627.432.373-.027.74.126.977.41.195.233.296.557.268.886-.027.328-.172.62-.404.814l-5.676 4.674c-1.563 1.291-3.208 1.094-5.29.846h-.004Zm4.126 1.125a5.533 5.533 0 0 0 1.936-1.044l5.498-4.53 3.44 2.793-5.73 6.96-5.144-4.175v-.004ZM38.681 27.6l-8.257 10.023a.47.47 0 0 1-.654.068l-1.964-1.584a.46.46 0 0 1-.068-.648l8.257-10.023a.47.47 0 0 1 .655-.068l1.963 1.584c.2.162.227.45.068.648Z" fill="#172A33"/><path d="M18.954.598v2.988a.604.604 0 0 0 1.209 0V.598a.604.604 0 0 0-1.209 0ZM9.539 3.064a.595.595 0 0 0-.223.819H9.31l1.51 2.586a.611.611 0 0 0 .83.22c.292-.166.392-.53.223-.818l-1.508-2.587a.607.607 0 0 0-.827-.22ZM3.236 10.456a.607.607 0 0 0-.827.22h-.005a.595.595 0 0 0 .223.819l2.613 1.493a.606.606 0 0 0 .832-.22.595.595 0 0 0-.223-.819l-2.613-1.493ZM34.036 10.64a.594.594 0 0 0-.222.819h-.005a.611.611 0 0 0 .832.22l2.613-1.493c.29-.167.39-.531.223-.82a.607.607 0 0 0-.827-.22l-2.614 1.494ZM28.956 2.524 27.447 5.11h-.004a.595.595 0 0 0 .223.819c.095.054.2.08.304.08a.606.606 0 0 0 .527-.3l1.509-2.588a.595.595 0 0 0-.223-.819.607.607 0 0 0-.827.22Z" fill="#E9DE5C"/><circle cx="35.364" cy="32.364" r="1.864" fill="#D9CA21" stroke="#FFFCD8"/></svg>