<svg width="536" height="387" viewBox="0 0 536 387" fill="none" xmlns="http://www.w3.org/2000/svg">
<path d="M183.655 379.332C141.956 373.289 66.045 342.434 92.4504 253.269C102.726 218.571 136.659 167.225 117.542 89.586C98.4245 11.9468 250.962 -34.4766 362.478 31.5567C439.942 77.4199 494.704 178.031 470.012 271.278C449.262 349.557 305.127 396.941 183.655 379.332Z" fill="#FBF8E0"/>
<g clip-path="url(#clip0_4202_5197)">
<path d="M113.934 384.853C113.934 384.853 165.874 261.059 184.49 272.509C203.107 283.958 247.085 384.853 247.085 384.853H113.934Z" fill="#00C4FF"/>
<path d="M192.695 383.422C192.695 383.422 261.834 244 286.623 256.895C311.412 269.789 369.939 383.422 369.939 383.422H192.695Z" fill="#00C4FF"/>
<path d="M434.384 384.853C434.384 384.853 386.897 266.34 369.885 277.303C352.872 288.265 312.66 384.853 312.66 384.853H434.384Z" fill="#00C4FF"/>
<path d="M268.264 238.876H259.672V383.422H268.264V238.876Z" fill="#D0F4F2"/>
<path d="M262.535 238.876H255.375V383.422H262.535V238.876Z" fill="white"/>
<path d="M279.908 115.798H245.167C239.582 115.798 234.211 118.017 230.259 121.967L205.699 146.511C201.747 150.461 199.527 155.813 199.527 161.409V196.128C199.527 201.71 201.747 207.077 205.699 211.027L230.259 235.571C234.211 239.521 239.567 241.739 245.167 241.739H279.908C285.493 241.739 290.863 239.521 294.816 235.571L319.375 211.027C323.328 207.077 325.547 201.724 325.547 196.128V161.409C325.547 155.827 323.328 150.461 319.375 146.511L294.816 121.967C290.863 118.017 285.507 115.798 279.908 115.798Z" fill="#ECE273"/>
<path d="M247.17 182.318C247.413 182.318 247.542 183.262 247.542 185.151C247.542 187.04 247.413 187.985 247.17 187.985L244.692 188.028V192.751C244.692 193.023 244.177 193.223 243.16 193.352C242.129 193.481 241.255 193.538 240.496 193.538L238.964 193.466C237.69 193.366 237.045 193.137 237.045 192.794V188.142H229.584C228.94 187.498 228.353 186.654 227.823 185.609C227.293 184.579 227.035 183.82 227.035 183.362C227.035 182.904 227.107 182.532 227.264 182.26L235.484 167.72C235.584 167.52 236.358 167.377 237.79 167.276C239.222 167.176 240.74 167.119 242.315 167.119C243.89 167.119 244.678 167.176 244.678 167.305L244.721 182.332H247.198L247.17 182.318ZM238.134 182.361V174.532L233.751 182.361H238.134Z" fill="#172A33"/>
<path d="M261.059 193.91C257.923 193.91 255.36 192.765 253.369 190.461C251.379 188.157 250.391 184.808 250.391 180.371C250.391 175.935 251.393 172.6 253.384 170.339C255.388 168.078 257.966 166.947 261.131 166.947C264.296 166.947 266.845 168.078 268.807 170.325C270.754 172.572 271.728 175.963 271.728 180.486C271.728 185.008 270.74 188.371 268.749 190.59C266.759 192.808 264.196 193.91 261.059 193.91ZM261.059 174.16C260.1 174.16 259.284 174.704 258.625 175.792C257.966 176.879 257.637 178.425 257.637 180.414C257.637 182.404 257.952 183.949 258.596 185.008C259.241 186.067 260.057 186.597 261.074 186.597C262.09 186.597 262.907 186.053 263.551 184.98C264.196 183.906 264.511 182.375 264.511 180.371C264.511 178.368 264.181 176.836 263.522 175.763C262.864 174.69 262.047 174.146 261.088 174.146L261.059 174.16Z" fill="#172A33"/>
<path d="M293.568 182.318C293.812 182.318 293.94 183.262 293.94 185.151C293.94 187.04 293.812 187.985 293.568 187.985L291.091 188.028V192.751C291.091 193.023 290.575 193.223 289.558 193.352C288.527 193.481 287.654 193.538 286.895 193.538L285.363 193.466C284.088 193.366 283.444 193.137 283.444 192.794V188.142H275.983C275.338 187.498 274.751 186.654 274.221 185.609C273.691 184.579 273.434 183.82 273.434 183.362C273.434 182.904 273.505 182.532 273.663 182.26L281.883 167.72C281.983 167.52 282.756 167.377 284.188 167.276C285.62 167.176 287.138 167.119 288.714 167.119C290.289 167.119 291.076 167.176 291.076 167.305L291.119 182.332H293.597L293.568 182.318ZM284.532 182.361V174.532L280.15 182.361H284.532Z" fill="#172A33"/>
<path d="M276.859 387H243.922C242.733 387 241.773 386.041 241.773 384.853C241.773 383.665 242.733 382.707 243.922 382.707H276.859C278.047 382.707 279.007 383.665 279.007 384.853C279.007 386.041 278.047 387 276.859 387Z" fill="#171717"/>
<path d="M226.734 387H176.613C175.424 387 174.465 386.041 174.465 384.853C174.465 383.665 175.424 382.707 176.613 382.707H226.734C227.923 382.707 228.883 383.665 228.883 384.853C228.883 386.041 227.923 387 226.734 387Z" fill="#171717"/>
<path d="M157.997 387H105.011C103.823 387 102.863 386.041 102.863 384.853C102.863 383.665 103.823 382.707 105.011 382.707H157.997C159.186 382.707 160.145 383.665 160.145 384.853C160.145 386.041 159.186 387 157.997 387Z" fill="#171717"/>
<path d="M434.381 387H292.609C291.42 387 290.461 386.041 290.461 384.853C290.461 383.665 291.42 382.707 292.609 382.707H434.381C435.57 382.707 436.529 383.665 436.529 384.853C436.529 386.041 435.57 387 434.381 387Z" fill="#171717"/>
<path d="M268.98 385.569C267.792 385.569 266.832 384.61 266.832 383.422V239.592C266.832 238.404 267.792 237.446 268.98 237.446C270.169 237.446 271.128 238.404 271.128 239.592V383.422C271.128 384.61 270.169 385.569 268.98 385.569Z" fill="#171717"/>
<path d="M253.23 385.569C252.042 385.569 251.082 384.61 251.082 383.422V239.592C251.082 238.404 252.042 237.446 253.23 237.446C254.419 237.446 255.378 238.404 255.378 239.592V383.422C255.378 384.61 254.419 385.569 253.23 385.569Z" fill="#171717"/>
<path d="M281.398 241.023H237.979C235.344 241.023 232.866 239.993 230.99 238.132L200.287 207.449C198.426 205.588 197.395 203.098 197.395 200.465V157.072C197.395 154.439 198.426 151.963 200.287 150.088L230.99 119.405C232.852 117.544 235.329 116.514 237.979 116.514H281.398C284.033 116.514 286.511 117.544 288.387 119.405L319.09 150.088C320.951 151.949 321.982 154.425 321.982 157.072V200.465C321.982 203.098 320.951 205.574 319.09 207.449L288.387 238.132C286.525 239.993 284.048 241.023 281.398 241.023ZM237.979 120.807C236.489 120.807 235.086 121.394 234.026 122.439L203.323 153.122C202.263 154.181 201.691 155.57 201.691 157.072V200.465C201.691 201.953 202.278 203.355 203.323 204.415L234.026 235.098C235.086 236.157 236.475 236.73 237.979 236.73H281.398C282.873 236.73 284.305 236.129 285.336 235.098L316.039 204.415C317.099 203.355 317.672 201.967 317.672 200.465V157.072C317.672 155.584 317.085 154.181 316.039 153.122L285.336 122.439C284.291 121.394 282.859 120.807 281.398 120.807H237.979Z" fill="#171717"/>
<path d="M271.916 225.281H247.442C242.902 225.281 238.635 223.52 235.427 220.3L218.128 202.998C214.92 199.792 213.145 195.527 213.145 190.99V166.532C213.145 161.995 214.906 157.731 218.128 154.525L235.441 137.222C238.649 134.017 242.917 132.242 247.456 132.242H271.93C276.47 132.242 280.737 134.002 283.945 137.222L301.244 154.525C304.452 157.731 306.227 161.995 306.227 166.532V190.99C306.227 195.527 304.466 199.792 301.244 202.998L283.945 220.3C280.737 223.506 276.47 225.281 271.93 225.281H271.916ZM247.442 136.55C244.048 136.55 240.855 137.866 238.463 140.271L221.15 157.573C218.744 159.978 217.426 163.155 217.426 166.546V191.005C217.426 194.397 218.744 197.588 221.15 199.978L238.463 217.281C240.855 219.685 244.048 221.001 247.442 221.001H271.916C275.31 221.001 278.503 219.685 280.895 217.281L298.194 199.978C300.585 197.574 301.917 194.397 301.917 191.005V166.546C301.917 163.155 300.599 159.963 298.194 157.573L280.895 140.271C278.503 137.866 275.31 136.55 271.916 136.55H247.442Z" fill="#171717"/>
<path d="M211.07 155.956C215.395 151.634 219.705 147.326 224.03 143.004C228.355 138.682 232.236 133.516 236.99 130.052C242.518 126.031 252.485 127.949 258.757 127.949H278.305C281.068 127.949 281.068 123.655 278.305 123.655H257.34C251.482 123.655 243.005 122.167 237.42 124.657C231.863 127.147 227.152 133.816 222.985 137.981C218.001 142.961 213.032 147.927 208.049 152.908C206.087 154.868 209.123 157.902 211.084 155.942L211.07 155.956Z" fill="white"/>
<path d="M254.662 233.152C253.531 233.152 252.586 232.265 252.514 231.12C252.457 229.932 253.359 228.93 254.548 228.859L275.069 227.785C278.893 227.585 282.573 226.068 285.423 223.506L294.76 215.105C295.647 214.318 296.994 214.39 297.796 215.263C298.583 216.15 298.512 217.495 297.638 218.297L288.301 226.698C284.721 229.918 280.11 231.821 275.298 232.079L254.777 233.152C254.777 233.152 254.705 233.152 254.662 233.152Z" fill="white"/>
<path d="M261.579 218.755C260.82 218.755 260.19 218.168 260.147 217.409C260.104 216.622 260.705 215.95 261.493 215.892L274.038 215.163C274.31 215.148 274.567 215.048 274.797 214.891L283.647 208.307C284.277 207.835 285.179 207.964 285.651 208.594C286.124 209.223 285.995 210.125 285.365 210.597L276.515 217.18C275.842 217.681 275.054 217.968 274.209 218.025L261.679 218.755C261.679 218.755 261.622 218.755 261.593 218.755H261.579Z" fill="white"/>
<path d="M258.339 217.281C258.339 218.082 257.695 218.74 256.879 218.74C256.062 218.74 255.418 218.096 255.418 217.281C255.418 216.465 256.062 215.821 256.879 215.821C257.695 215.821 258.339 216.465 258.339 217.281Z" fill="white"/>
<path opacity="0.7" d="M157.969 145.403H9.30829C4.19589 145.403 0 141.21 0 136.101C0 130.992 4.19589 126.798 9.30829 126.798H157.969C163.081 126.798 167.277 130.992 167.277 136.101C167.277 141.21 163.096 145.403 157.969 145.403Z" fill="#FBF8E0"/>
<path opacity="0.34" d="M193.926 122.21H45.2653C40.1529 122.21 35.957 118.017 35.957 112.907C35.957 107.798 40.1386 103.605 45.2653 103.605H193.926C199.038 103.605 203.234 107.798 203.234 112.907C203.234 118.017 199.053 122.21 193.926 122.21Z" fill="white"/>
<path d="M152.513 100.605H62.5661C57.4537 100.605 53.2578 96.4116 53.2578 91.3024C53.2578 86.1933 57.4394 82 62.5661 82H152.513C157.625 82 161.821 86.1933 161.821 91.3024C161.821 96.4116 157.64 100.605 152.513 100.605Z" fill="#FBFBFB"/>
<path d="M148.698 157H34.2343C29.6866 157 26 160.684 26 165.229V167.376C26 171.921 29.6866 175.605 34.2343 175.605H148.698C153.245 175.605 156.932 171.921 156.932 167.376V165.229C156.932 160.684 153.245 157 148.698 157Z" fill="#E7F9FF"/>
<path opacity="0.56" d="M490.734 222.175H342.074C336.962 222.175 332.766 217.982 332.766 212.873C332.766 207.764 336.947 203.57 342.074 203.57H490.734C495.847 203.57 500.043 207.764 500.043 212.873C500.043 217.982 495.861 222.175 490.734 222.175Z" fill="#FBF8E0"/>
<path d="M520.969 195.605H372.308C367.196 195.605 363 191.412 363 186.302C363 181.193 367.182 177 372.308 177H520.969C526.081 177 530.277 181.193 530.277 186.302C530.277 191.412 526.096 195.605 520.969 195.605Z" fill="#E7F9FF"/>
<path d="M137.29 270.628H51.1091C45.9967 270.628 41.8008 266.449 41.8008 261.326C41.8008 256.202 45.9823 252.023 51.1091 252.023H137.29C142.402 252.023 146.598 256.202 146.598 261.326C146.598 266.449 142.416 270.628 137.29 270.628Z" fill="white"/>
<path d="M98.4887 295.902H12.3083C7.19589 295.902 3 291.723 3 286.6C3 281.476 7.18157 277.297 12.3083 277.297H98.4887C103.601 277.297 107.797 281.476 107.797 286.6C107.797 291.723 103.615 295.902 98.4887 295.902Z" fill="#E7F9FF"/>
<path opacity="0.6" d="M461.255 167.605H371.308C366.196 167.605 362 163.412 362 158.302C362 153.193 366.182 149 371.308 149H461.255C466.367 149 470.563 153.193 470.563 158.302C470.563 163.412 466.382 167.605 461.255 167.605Z" fill="white"/>
</g>
<defs>
<clipPath id="clip0_4202_5197">
<rect width="536" height="302" fill="white" transform="translate(0 85)"/>
</clipPath>
</defs>
</svg>
