<svg width="81" height="24" viewBox="0 0 81 24" fill="none" xmlns="http://www.w3.org/2000/svg">
<g clip-path="url(#clip0_11387_10246)">
<path d="M12.9731 21.1706L14.2087 9.35563H16.4695L16.3734 10.9299H16.5577C16.7836 10.5442 17.0613 10.2236 17.3961 9.96814C17.731 9.71271 18.1515 9.51723 18.6576 9.37648C19.1638 9.23834 19.7711 9.16797 20.4798 9.16797C21.3104 9.16797 21.9697 9.26441 22.4576 9.45728C22.9456 9.65016 23.2986 9.93947 23.5193 10.3252C23.7399 10.711 23.8697 11.1906 23.9112 11.7614C23.9501 12.3322 23.932 13.0046 23.8489 13.7761L23.0754 21.1654H20.6069L21.2792 14.7483C21.3597 13.9768 21.3986 13.3617 21.3908 12.9056C21.3856 12.4495 21.3078 12.1106 21.1624 11.8865C21.0171 11.6623 20.7809 11.519 20.459 11.459C20.1345 11.3965 19.6959 11.3652 19.143 11.3652C18.5278 11.3652 18.0321 11.4434 17.6531 11.5972C17.2741 11.7509 16.9808 11.9829 16.7732 12.2931C16.5629 12.6032 16.4072 12.989 16.306 13.4503C16.2047 13.9117 16.1217 14.4538 16.0568 15.0715L15.4182 21.1628H12.9731V21.1706Z" fill="#032C35"/>
<path d="M29.4502 21.353C28.9881 21.353 28.495 21.3374 27.9681 21.3061C27.4411 21.2748 26.9246 21.2357 26.4236 21.1914C25.9201 21.1445 25.4736 21.0898 25.0791 21.0298L25.2842 19.0828C25.5437 19.0985 25.837 19.1219 26.1641 19.1532C26.4911 19.1845 26.839 19.2079 27.2075 19.2236C27.5761 19.2392 27.9343 19.2548 28.2873 19.2705C28.6403 19.2861 28.9856 19.2939 29.323 19.2939C30.0602 19.2939 30.6 19.247 30.9401 19.1558C31.2801 19.062 31.5111 18.9056 31.6357 18.6814C31.7603 18.4573 31.8408 18.168 31.8771 17.8135C31.9186 17.4121 31.916 17.1176 31.8667 16.9325C31.8174 16.7475 31.7032 16.625 31.5241 16.5624C31.345 16.4998 31.0673 16.4477 30.6883 16.4008L27.8642 16.0541C27.1349 15.9786 26.595 15.8039 26.2471 15.5329C25.8993 15.2618 25.6839 14.8917 25.6034 14.4199C25.523 13.9482 25.5178 13.3747 25.5878 12.6945C25.6709 11.9073 25.8474 11.2766 26.12 10.8074C26.3925 10.3356 26.7429 9.98377 27.1764 9.75441C27.6073 9.52244 28.1212 9.36866 28.713 9.29046C29.3048 9.21488 29.9485 9.17578 30.639 9.17578C31.0699 9.17578 31.5189 9.19142 31.9835 9.2227C32.4481 9.25397 32.8998 9.29568 33.3307 9.35041C33.7641 9.40515 34.1379 9.46249 34.4546 9.52504L34.2495 11.472C33.8861 11.4251 33.489 11.3886 33.0607 11.3574C32.6324 11.3261 32.2093 11.3 31.7889 11.2766C31.3684 11.2531 30.966 11.2427 30.5819 11.2427C30.0134 11.2427 29.541 11.2687 29.1672 11.3235C28.7935 11.3782 28.5054 11.5007 28.3107 11.6936C28.1134 11.8865 27.9914 12.2149 27.9421 12.6788C27.9058 13.0333 27.9032 13.3018 27.9395 13.479C27.9732 13.6562 28.0771 13.7813 28.2458 13.8491C28.4145 13.9195 28.6819 13.9768 29.0453 14.0237L32.0977 14.3939C32.6766 14.4564 33.136 14.5763 33.4786 14.7535C33.8212 14.9308 34.0575 15.2488 34.1872 15.7023C34.317 16.1584 34.3326 16.8491 34.2365 17.7744C34.1561 18.5459 33.9952 19.1688 33.7538 19.6406C33.5124 20.1124 33.1853 20.4747 32.7752 20.7301C32.3651 20.9855 31.8797 21.1549 31.3268 21.2409C30.7714 21.3243 30.1484 21.3687 29.4554 21.3687L29.4502 21.353Z" fill="#032C35"/>
<path d="M39.3213 21.3568C38.5063 21.3568 37.8496 21.2603 37.3564 21.0675C36.8607 20.8746 36.4999 20.5853 36.2714 20.1995C36.043 19.8138 35.9132 19.3342 35.8795 18.7634C35.8484 18.1926 35.8717 17.5201 35.9522 16.7486L36.7257 9.35938H39.1708L38.4985 15.7764C38.418 16.5479 38.3791 17.163 38.3869 17.6191C38.3921 18.0753 38.47 18.4141 38.6153 18.6383C38.7607 18.8624 38.9969 19.0058 39.3213 19.0657C39.6458 19.1283 40.0845 19.1595 40.6373 19.1595C41.2525 19.1595 41.7535 19.0814 42.1376 18.9276C42.5218 18.7738 42.8203 18.5418 43.0305 18.2317C43.2382 17.9241 43.3913 17.5357 43.4848 17.0744C43.5782 16.6131 43.6587 16.0709 43.7236 15.4532L44.3621 9.36198H46.8305L45.595 21.1769H43.3342L43.4069 19.6026H43.246C43.0383 19.9728 42.7632 20.2907 42.4205 20.5514C42.0779 20.8146 41.6522 21.0153 41.1461 21.1535C40.6399 21.2916 40.0325 21.362 39.3239 21.362L39.3213 21.3568Z" fill="#032C35"/>
<path d="M47.8765 21.1719L49.112 9.35693H51.3494L51.2197 11.489H51.404C51.6687 10.8713 51.9958 10.3917 52.3851 10.0528C52.7745 9.71401 53.2287 9.48204 53.7504 9.35693C54.2721 9.23443 54.8536 9.17188 55.4999 9.17188L55.2481 11.5802C54.2021 11.5802 53.3818 11.734 52.79 12.0442C52.1956 12.3543 51.7518 12.8443 51.4585 13.5142C51.1652 14.1866 50.9627 15.0624 50.8485 16.1441L50.3216 21.1719H47.8765Z" fill="#032C35"/>
<path d="M60.268 21.3569C59.2687 21.3569 58.4432 21.2918 57.7969 21.1588C57.148 21.0285 56.6419 20.8122 56.2733 20.5098C55.9047 20.2075 55.6451 19.8217 55.4946 19.3526C55.344 18.8808 55.2714 18.31 55.2817 17.6376C55.2895 16.9651 55.3414 16.1832 55.4349 15.2866C55.5465 14.2205 55.697 13.3031 55.8839 12.529C56.0708 11.7575 56.3615 11.1189 56.7535 10.6184C57.1428 10.1154 57.7087 9.7505 58.4484 9.51853C59.1882 9.28656 60.1564 9.17188 61.3556 9.17188C62.2926 9.17188 63.0557 9.24486 63.6397 9.39082C64.2237 9.53678 64.6728 9.76614 64.9869 10.0737C65.3009 10.3839 65.5138 10.78 65.6228 11.2674C65.7318 11.7548 65.7759 12.3335 65.7526 13.0059C65.7292 13.6784 65.6721 14.4395 65.5839 15.2866L65.5008 16.0737H57.8177C57.745 16.7696 57.7165 17.3274 57.7346 17.7522C57.7502 18.1771 57.8592 18.5029 58.0591 18.7244C58.2589 18.9486 58.5964 19.1024 59.0714 19.1884C59.5464 19.2744 60.2005 19.3161 61.0311 19.3161C61.3841 19.3161 61.7735 19.3083 62.1991 19.2926C62.6222 19.277 63.0609 19.2457 63.5125 19.1988C63.9642 19.1519 64.3665 19.1128 64.7247 19.0815L64.5222 21.0051C64.177 21.0676 63.7643 21.125 63.2815 21.1797C62.7987 21.2344 62.2952 21.2761 61.7683 21.3074C61.2413 21.3387 60.7404 21.3543 60.2654 21.3543L60.268 21.3569ZM63.2893 14.7548L63.336 14.3144C63.4087 13.6184 63.4243 13.0685 63.3828 12.6567C63.3412 12.2475 63.2348 11.9399 63.0635 11.7314C62.8922 11.5229 62.6456 11.3847 62.3237 11.3144C61.9993 11.244 61.5918 11.2101 61.1012 11.2101C60.486 11.2101 59.9928 11.2518 59.6243 11.3378C59.2531 11.4238 58.965 11.5802 58.7547 11.8122C58.5471 12.0442 58.3861 12.3648 58.2745 12.774C58.1629 13.1832 58.0721 13.7201 58.002 14.3847H63.7461L63.2919 14.7548H63.2893Z" fill="#032C35"/>
<path d="M74.5312 19.9625L74.9154 16.303H71.2944L71.4995 14.3352H75.1204L75.502 10.6992H77.4617L77.0801 14.3352H80.7244L80.5194 16.303H76.8751L76.4909 19.9625H74.5312Z" fill="#032C35"/>
<path d="M7.36141 24.0021C6.13627 24.0021 5.13435 23.5825 4.36604 22.7432C3.80538 22.1307 3.43679 21.3331 3.21357 20.4235C1.93391 21.2054 1.01246 21.6563 0.900844 21.7085L-0.00244141 19.8214C0.0287064 19.8058 1.29798 19.1854 2.94362 18.1116C2.88392 14.2254 4.41016 9.63549 5.12916 8.3818C6.48149 6.02037 8.81238 5.57728 10.4139 6.3566C11.8986 7.08119 12.9472 8.94739 11.9349 11.4861C10.6423 14.7285 7.62617 17.4053 5.06946 19.2037C5.18626 20.0899 5.44583 20.8327 5.89747 21.3253C6.68395 22.1828 8.19462 22.0916 10.3905 21.0543L11.2782 22.9465C9.79094 23.6477 8.48273 23.9995 7.36401 23.9995L7.36141 24.0021ZM8.87208 8.1003C8.22057 8.1003 7.46784 8.50169 6.93573 9.42698C6.27643 10.5764 5.30306 13.7458 5.05388 16.6103C7.04994 15.0516 9.08492 13.016 10.0038 10.7093C10.4632 9.5573 10.2737 8.61116 9.50802 8.24105C9.31853 8.14722 9.1005 8.1003 8.87208 8.1003Z" fill="#00C4FF"/>
<path d="M11.571 2.09296C11.571 3.24761 10.6391 4.18593 9.48665 4.18593C8.33418 4.18593 7.40234 3.25022 7.40234 2.09296C7.40234 0.935708 8.33678 0 9.48665 0C10.6365 0 11.571 0.935708 11.571 2.09296Z" fill="#00C4FF"/>
</g>
<defs>
<clipPath id="clip0_11387_10246">
<rect width="80.7273" height="24" fill="white"/>
</clipPath>
</defs>
</svg>
