<svg xmlns="http://www.w3.org/2000/svg" width="128" height="74" fill="none"><g fill="#fff"><path d="m77.232 19.805-2.813 6.148-1.774-6.148-4.11-10.57h-4.832l-2.037 24.087h3.927l.959-11.325.116-7.944 2.157 6.938 3.333 8.268h3.961l4.731-8.268 3.262-6.938-1.157 7.944-.959 11.325h3.927L87.96 9.235h-4.83l-5.898 10.57Zm30.08-6.957a6.202 6.202 0 0 0-2.913-2.733c-1.272-.587-2.73-.88-4.374-.88h-9.487l-2.042 24.087h3.927l.645-7.621h5.56c1.55.017 3.087-.286 4.523-.89a8.018 8.018 0 0 0 3.371-2.677c.877-1.198 1.393-2.708 1.548-4.53.168-1.936-.085-3.522-.758-4.756Zm-3.343 4.764c-.095 1.126-.403 2.019-.922 2.678a4.22 4.22 0 0 1-1.96 1.402 7.522 7.522 0 0 1-2.503.413h-5.208l.784-9.275h5.213a6.94 6.94 0 0 1 2.436.414 3.271 3.271 0 0 1 1.719 1.438c.404.683.551 1.66.441 2.93Zm23.225-4.764a6.208 6.208 0 0 0-2.914-2.733c-1.272-.587-2.73-.88-4.374-.88h-9.484l-2.041 24.087h3.927l.645-7.621h5.56a11.34 11.34 0 0 0 4.517-.879 7.996 7.996 0 0 0 3.371-2.678c.879-1.198 1.395-2.707 1.549-4.53.167-1.943-.085-3.532-.756-4.766Zm-3.34 4.764c-.095 1.126-.402 2.019-.921 2.678a4.225 4.225 0 0 1-1.96 1.402 7.524 7.524 0 0 1-2.503.413h-5.212l.783-9.275h5.214c.829-.01 1.653.13 2.436.414a3.27 3.27 0 0 1 1.719 1.438c.404.683.552 1.66.444 2.93ZM57.483 9.238l-1.17 13.841c-.201 2.372-.752 4.085-1.653 5.142-.9 1.056-2.324 1.583-4.272 1.581-1.9 0-3.228-.527-3.984-1.581-.06-.085-.112-.18-.165-.272h-.007c-.625-1.067-.846-2.691-.662-4.873l1.17-13.841h-3.925l-1.166 13.812s-.615 3.15.492 6.02a8.784 8.784 0 0 0 .191.452l.059.124.061.13c.045.087.09.174.144.26.192.38.422.737.686 1.067 1.395 1.725 3.645 2.588 6.75 2.59 3.196 0 5.62-.863 7.273-2.59 1.653-1.726 2.632-4.41 2.937-8.053L61.41 9.24l-3.927-.003ZM44.747 6.225c1.662 0 3.009-1.394 3.009-3.113S46.409 0 44.747 0s-3.009 1.393-3.009 3.112c0 1.72 1.347 3.113 3.009 3.113Z"/><path d="M37.624 32.452c-.973.004-1.943.103-2.898.296a169.211 169.211 0 0 0 6.678-23.556h-3.972a165.123 165.123 0 0 1-7.409 25.004c-.185.077-.371.155-.558.236-3.856 1.66-8.11 4.273-12.998 7.977-1.72 1.298-5.845 5.101-9.626 9.771C2.094 58.042-.202 62.918.014 66.67c.143 2.501 1.388 4.503 3.596 5.79a6.765 6.765 0 0 0 3.449.963c3.047 0 5.854-2.099 7.891-4.187 2.94-3.011 5.393-7.015 6.86-9.408l.119-.194c4.146-6.762 7.871-14.303 11.043-22.28 4.27-1.46 7.29-1.118 8.99 1.025.85 1.07 1.853 3.179.765 9.107l3.813.749c.716-3.938 1.195-8.908-1.576-12.402-1.773-2.234-4.242-3.37-7.34-3.381ZM18.652 57.483l-.12.196c-2.33 3.803-8.52 13.902-13.018 11.283-1.059-.618-1.562-1.399-1.626-2.533-.087-1.516.573-5.05 5.929-11.671 3.37-4.165 7.26-7.835 8.944-9.11 3.26-2.473 6.285-4.466 9.026-5.959a138.81 138.81 0 0 1-9.135 17.794Z"/></g></svg>