<svg width="110" height="110" viewBox="0 0 110 110" fill="none" xmlns="http://www.w3.org/2000/svg">
<g clip-path="url(#clip0_6890_5995)">
<path d="M37.2648 96.4589C56.723 91.3316 72.9982 97.0093 82.3744 94.5378C91.7507 92.0663 109.888 81.9587 97.4315 42.597C84.9747 3.23529 56.6586 4.44297 46.3423 7.16024C-1.95324 19.8863 2.80223 105.54 37.2648 96.4589Z" fill="#E9DE5C" fill-opacity="0.2"/>
<path d="M87.2529 18.0193C85.6234 21.3353 81.6069 22.7051 78.2909 21.0756C74.9749 19.4461 73.6052 15.4296 75.2346 12.1136C76.8641 8.79761 80.8806 7.42787 84.1966 9.05734C87.5127 10.6868 88.8824 14.7033 87.2529 18.0193Z" fill="#00A7E1"/>
<path d="M75.4131 82.198C73.7836 85.5141 69.7671 86.8838 66.4511 85.2543C63.1351 83.6249 61.7653 79.6084 63.3948 76.2923C65.0243 72.9763 69.0408 71.6066 72.3568 73.2361C75.6728 74.8655 77.0425 78.882 75.4131 82.198Z" fill="#00A7E1"/>
<path d="M4.24923 100.404L23.8338 59.8087C24.1849 59.0942 25.1284 58.8869 25.5931 59.4223L49.07 86.6978C49.5348 87.2332 49.1804 88.1395 48.4289 88.3729L5.36731 101.693C4.52464 101.95 3.87127 101.197 4.25372 100.395" fill="#00A7E1"/>
<path d="M23.0166 56.4502L51.6196 89.679" stroke="#032C35" stroke-width="1.53097" stroke-miterlimit="10"/>
<path d="M51.2581 65.8582C51.2581 65.8582 67.2935 53.3135 91.4586 61.9242" stroke="#032C35" stroke-width="1.53097" stroke-miterlimit="10" stroke-linecap="round"/>
<path d="M44.0947 18.0205C44.0947 18.0205 47.6343 42.7544 34.8005 57.5547" stroke="#032C35" stroke-width="1.53097" stroke-miterlimit="10" stroke-linecap="round"/>
<path d="M84.9906 16.9088C83.5142 19.9134 79.8757 21.1619 76.8712 19.6854C73.8666 18.209 72.6181 14.5705 74.0991 11.5568C75.58 8.54306 79.214 7.30379 82.2277 8.78472C85.2414 10.2656 86.4716 13.8951 84.9906 16.9088Z" stroke="#032C35" stroke-width="1.53097" stroke-miterlimit="10" stroke-linecap="round"/>
<path d="M72.4911 80.7614C71.0147 83.766 67.3762 85.0144 64.3716 83.538C61.3671 82.0615 60.1186 78.4231 61.5996 75.4094C63.0805 72.3956 66.7145 71.1563 69.7282 72.6373C72.7419 74.1182 73.972 77.7477 72.4911 80.7614Z" stroke="#032C35" stroke-width="1.53097" stroke-miterlimit="10" stroke-linecap="round"/>
<path d="M63.8083 30.9951L58.8676 34.7083" stroke="#032C35" stroke-width="1.53097" stroke-miterlimit="10" stroke-linecap="round"/>
<path d="M57.4777 35.7539L52.5371 39.467" stroke="#032C35" stroke-width="1.53097" stroke-miterlimit="10" stroke-linecap="round"/>
<path d="M53.939 29.6025L57.6613 34.5476" stroke="#032C35" stroke-width="1.53097" stroke-miterlimit="10" stroke-linecap="round"/>
<path d="M58.7012 35.9238L62.4235 40.8689" stroke="#032C35" stroke-width="1.53097" stroke-miterlimit="10" stroke-linecap="round"/>
<path d="M106.168 65.4785L101.227 69.1917" stroke="#032C35" stroke-width="1.53097" stroke-miterlimit="10" stroke-linecap="round"/>
<path d="M99.838 70.2382L94.8929 73.9606" stroke="#032C35" stroke-width="1.53097" stroke-miterlimit="10" stroke-linecap="round"/>
<path d="M96.2896 64.083L100.012 69.0281" stroke="#032C35" stroke-width="1.53097" stroke-miterlimit="10" stroke-linecap="round"/>
<path d="M101.058 70.416L104.785 75.352" stroke="#032C35" stroke-width="1.53097" stroke-miterlimit="10" stroke-linecap="round"/>
<path d="M30.5078 37.2959C30.5078 37.2959 32.1785 43.2457 28.768 49.7464" stroke="#032C35" stroke-width="1.53097" stroke-miterlimit="10" stroke-linecap="round"/>
<path d="M19.126 69.5498L24.488 95.782" stroke="#032C35" stroke-width="1.53097" stroke-miterlimit="10" stroke-linecap="round"/>
<path d="M9.42432 89.665L11.0245 99.9471" stroke="#032C35" stroke-width="1.53097" stroke-miterlimit="10" stroke-linecap="round"/>
</g>
<defs>
<clipPath id="clip0_6890_5995">
<rect width="110" height="110" fill="white"/>
</clipPath>
</defs>
</svg>
