<svg width="121" height="21" viewBox="0 0 121 21" fill="none" xmlns="http://www.w3.org/2000/svg">
<g clip-path="url(#clip0_3051_30029)">
<mask id="mask0_3051_30029" style="mask-type:luminance" maskUnits="userSpaceOnUse" x="-378" y="-46" width="522" height="744">
<path d="M-377.778 -45.9785H143.945V697.971H-377.778V-45.9785Z" fill="white"/>
</mask>
<g mask="url(#mask0_3051_30029)">
<path d="M9.39266 15.5219C10.361 15.5219 10.7861 14.2466 9.99884 13.6404C9.91487 13.5565 9.81252 13.4541 9.69181 13.3334C5.86579 10.2395 4.70853 10.9638 0.882511 12.3021C0.764424 12.3651 0.764424 12.5462 0.882511 12.6091C2.03976 12.8453 3.13404 13.5774 4.59045 15.0968L8.96755 15.5219C9.08826 15.5219 9.22996 15.5219 9.39266 15.5219ZM27.3655 0.0367846L12.6676 14.7347C11.6363 15.8211 10.1169 16.3722 8.59754 16.2462L5.07854 15.9471L8.7235 19.4661C10.668 21.2925 13.7619 20.9225 15.2183 18.7418L27.6096 0.217852C27.6726 0.0918919 27.4915 -0.0891751 27.3655 0.0367846Z" fill="#EB1F48"/>
<path fill-rule="evenodd" clip-rule="evenodd" d="M32.7114 5.31876L35.5691 10.9633C35.6242 11.0263 35.7502 11.0263 35.8132 10.9633L38.6 5.31876C38.6 5.1928 38.663 5.1377 38.8441 5.1377H41.8829C41.9458 5.1377 42.0009 5.25578 41.9458 5.31876L37.2696 14.2462V18.7413C37.2696 18.8621 37.2092 18.9224 37.0885 18.9224H34.2308C34.1101 18.9224 34.0497 18.8621 34.0497 18.7413V14.1832L29.3735 5.31876C29.3105 5.1928 29.3735 5.1377 29.4916 5.1377H32.4674C32.5933 5.1377 32.6484 5.1928 32.7114 5.31876ZM52.6367 16.2458V18.7413C52.6367 18.8621 52.5737 18.9224 52.4477 18.9224H43.0952C42.9745 18.9224 42.9142 18.8621 42.9142 18.7413V5.31876C42.9142 5.19805 42.9745 5.1377 43.0952 5.1377H52.9358C53.0618 5.1377 53.1169 5.25578 53.0618 5.38174C52.9358 5.6809 52.2667 7.50731 52.2116 7.68838C52.1486 7.80647 52.0856 7.86945 51.9675 7.86945H46.197C46.113 7.86945 46.071 7.9298 46.071 8.05051V10.4831C46.071 10.6038 46.113 10.6642 46.197 10.6642H51.2983C51.4191 10.6642 51.4794 10.7245 51.4794 10.8452V13.0889C51.4794 13.1729 51.4191 13.2149 51.2983 13.2149H46.197C46.113 13.2149 46.071 13.2752 46.071 13.3959V15.8836C46.071 16.0043 46.113 16.0647 46.197 16.0647H52.4477C52.5737 16.0647 52.6367 16.1251 52.6367 16.2458ZM62.9575 7.98753H58.2183C57.431 7.98753 57.0689 8.35754 57.0689 8.96372C57.0689 9.5699 57.557 9.86905 58.6434 10.2942L60.5328 10.9633C62.8394 11.7584 63.9337 12.6638 63.9337 14.9153C63.9337 17.2849 62.3513 18.9224 58.8874 18.9224H54.2112C54.1324 18.9224 54.0931 18.8621 54.0931 18.7413V16.2458C54.0931 16.1251 54.1324 16.0647 54.2112 16.0647H59.2574C60.2257 16.0647 60.6508 15.6396 60.6508 14.9704C60.6508 14.2462 60.1628 13.884 58.8323 13.3959L57.0689 12.7897C55.3054 12.1836 53.786 11.2074 53.786 9.08181C53.786 6.46814 55.7306 5.1377 58.5883 5.1377H62.9575C63.0782 5.1377 63.1386 5.19805 63.1386 5.31876V7.80647C63.1386 7.92718 63.0782 7.98753 62.9575 7.98753ZM70.1844 18.7413V5.31876C70.1844 5.19805 70.2448 5.1377 70.3655 5.1377H77.2303C79.844 5.1377 80.9382 7.01922 80.9382 8.71967C80.9382 10.058 80.2691 11.2704 79.0567 11.8136C80.7572 12.3646 81.5444 13.514 81.5444 15.1594C81.5444 17.5211 79.844 18.9224 77.0492 18.9224H70.3655C70.2448 18.9224 70.1844 18.8621 70.1844 18.7413ZM73.3413 7.98753V10.5382C73.3413 10.6589 73.4043 10.7193 73.5302 10.7193H76.262C77.2303 10.7193 77.8365 10.2391 77.8365 9.26287C77.8365 8.35754 77.2933 7.80647 76.262 7.80647H73.5302C73.4043 7.80647 73.3413 7.86682 73.3413 7.98753ZM73.3413 13.3959V16.0647C73.3413 16.1854 73.4043 16.2458 73.5302 16.2458H76.6871C77.7814 16.2458 78.3246 15.6396 78.3246 14.7894C78.3246 13.884 77.8365 13.2149 76.6871 13.2149H73.5302C73.4043 13.2149 73.3413 13.2752 73.3413 13.3959ZM86.6458 5.1377H89.8656C90.0467 5.1377 90.0467 5.1928 90.1097 5.31876L94.7229 18.7413C94.7229 18.8594 94.7229 18.9224 94.6048 18.9224H91.6842C91.5661 18.9224 91.5661 18.8594 91.5031 18.7413L90.5899 16.0096C90.5899 15.8836 90.5295 15.8206 90.4088 15.8206H86.2207C86.1026 15.8206 86.0396 15.8836 85.9766 16.0096L85.1264 18.7413C85.0634 18.8594 85.0634 18.9224 84.8823 18.9224H82.0325C81.9065 18.9224 81.8514 18.8594 81.9065 18.6784L86.4647 5.31876C86.4647 5.19805 86.5251 5.1377 86.6458 5.1377ZM89.8656 13.514L88.3462 8.53861C88.3462 8.41265 88.2281 8.41265 88.2281 8.53861L86.7087 13.514C86.6668 13.6347 86.7061 13.6951 86.8268 13.6951H89.7397C89.8236 13.6951 89.8656 13.6347 89.8656 13.514ZM98.6749 18.9224H95.8802C95.7962 18.9224 95.7542 18.8621 95.7542 18.7413V5.31876C95.7542 5.19805 95.7962 5.1377 95.8802 5.1377H98.1238L98.2498 5.1928L104.445 13.27V5.31876C104.445 5.19805 104.485 5.1377 104.564 5.1377H107.358C107.479 5.1377 107.539 5.19805 107.539 5.31876V18.7964C107.539 18.8594 107.476 18.9224 107.421 18.9224H105.233L105.107 18.8594L98.856 10.8452V18.7413C98.856 18.8621 98.7956 18.9224 98.6749 18.9224ZM109.783 18.7413V5.31876C109.783 5.19805 109.846 5.1377 109.972 5.1377H112.704C112.824 5.1377 112.885 5.19805 112.885 5.31876V10.8452C112.885 10.9082 113.003 10.9633 113.066 10.8452L117.868 5.31876C117.986 5.1928 118.049 5.1377 118.23 5.1377H121.206C121.324 5.1377 121.387 5.31876 121.269 5.38174L116.467 11.2074C116.425 11.2494 116.425 11.3097 116.467 11.3884L121.694 18.6784C121.749 18.7964 121.694 18.9224 121.568 18.9224H118.411C118.293 18.9224 118.23 18.8594 118.23 18.7964L114.459 13.514C114.381 13.4353 114.32 13.4353 114.278 13.514L112.948 14.9153C112.906 14.9521 112.885 14.9914 112.885 15.0334V18.7413C112.885 18.8621 112.824 18.9224 112.704 18.9224H109.972C109.846 18.9224 109.783 18.8621 109.783 18.7413Z" fill="#0230D9"/>
</g>
</g>
<defs>
<clipPath id="clip0_3051_30029">
<rect width="121" height="21" fill="white"/>
</clipPath>
</defs>
</svg>
