<svg width="32" height="32" fill="none" xmlns="http://www.w3.org/2000/svg"><path d="M20 8H3a1 1 0 0 1 0-2h17a1 1 0 1 1 0 2Zm9 9H3a1 1 0 0 1 0-2h26a1 1 0 0 1 0 2Zm0 9H3a1 1 0 0 1 0-2h26a1 1 0 0 1 0 2Z" fill="#172A33"/><path d="M2 7h-.5.5Zm1-1v.5V6ZM2 16h-.5.5Zm0 9h-.5.5ZM20 7.5H3v1h17v-1Zm-17 0a.5.5 0 0 1-.354-.146l-.707.707A1.5 1.5 0 0 0 3 8.5v-1Zm-.354-.146A.5.5 0 0 1 2.5 7h-1c0 .398.158.78.44 1.06l.706-.706ZM2.5 7a.5.5 0 0 1 .146-.354L1.94 5.94A1.5 1.5 0 0 0 1.5 7h1Zm.146-.354A.5.5 0 0 1 3 6.5v-1a1.5 1.5 0 0 0-1.06.44l.706.706ZM3 6.5h17v-1H3v1Zm17 0a.5.5 0 0 1 .354.146l.707-.707A1.5 1.5 0 0 0 20 5.5v1Zm.354.146A.5.5 0 0 1 20.5 7h1a1.5 1.5 0 0 0-.44-1.06l-.706.706ZM20.5 7a.5.5 0 0 1-.146.354l.707.707A1.5 1.5 0 0 0 21.5 7h-1Zm-.146.354A.5.5 0 0 1 20 7.5v1a1.5 1.5 0 0 0 1.06-.44l-.706-.706ZM29 16.5H3v1h26v-1Zm-26 0a.5.5 0 0 1-.354-.146l-.707.707A1.5 1.5 0 0 0 3 17.5v-1Zm-.354-.146A.5.5 0 0 1 2.5 16h-1c0 .398.158.78.44 1.06l.706-.706ZM2.5 16a.5.5 0 0 1 .146-.354l-.707-.707A1.5 1.5 0 0 0 1.5 16h1Zm.146-.354A.5.5 0 0 1 3 15.5v-1a1.5 1.5 0 0 0-1.06.44l.706.706ZM3 15.5h26v-1H3v1Zm26 0a.5.5 0 0 1 .354.146l.707-.707A1.5 1.5 0 0 0 29 14.5v1Zm.354.146A.5.5 0 0 1 29.5 16h1a1.5 1.5 0 0 0-.44-1.06l-.706.706ZM29.5 16a.5.5 0 0 1-.146.354l.707.707A1.5 1.5 0 0 0 30.5 16h-1Zm-.146.354A.5.5 0 0 1 29 16.5v1a1.5 1.5 0 0 0 1.06-.44l-.706-.706ZM29 25.5H3v1h26v-1Zm-26 0a.5.5 0 0 1-.354-.146l-.707.707A1.5 1.5 0 0 0 3 26.5v-1Zm-.354-.146A.5.5 0 0 1 2.5 25h-1c0 .398.158.78.44 1.06l.706-.706ZM2.5 25a.5.5 0 0 1 .146-.354l-.707-.707A1.5 1.5 0 0 0 1.5 25h1Zm.146-.354A.5.5 0 0 1 3 24.5v-1a1.5 1.5 0 0 0-1.06.44l.706.706ZM3 24.5h26v-1H3v1Zm26 0a.5.5 0 0 1 .354.146l.707-.707A1.5 1.5 0 0 0 29 23.5v1Zm.354.146A.5.5 0 0 1 29.5 25h1a1.5 1.5 0 0 0-.44-1.06l-.706.706ZM29.5 25a.5.5 0 0 1-.146.354l.707.707A1.5 1.5 0 0 0 30.5 25h-1Zm-.146.354A.5.5 0 0 1 29 25.5v1a1.5 1.5 0 0 0 1.06-.44l-.706-.706Z" fill="#172A33"/><circle cx="23" cy="7" r="2.5" fill="#172A33" stroke="#E9DE5C"/></svg>