<svg width="22" height="25" fill="none" xmlns="http://www.w3.org/2000/svg"><g style="mix-blend-mode:luminosity"><path d="M.477.504c-.28.288-.443.738-.443 1.32v20.764c0 .583.163 1.034.443 1.32l.07.063 11.768-11.629v-.271L.547.442l-.07.062Z" fill="url(#a)"/><path d="m16.23 16.22-3.915-3.877v-.272l3.922-3.876.086.054 4.645 2.61c1.328.746 1.328 1.966 0 2.711l-4.645 2.61-.093.04Z" fill="url(#b)"/><path d="m16.323 16.172-4.008-3.961L.477 23.909c.442.458 1.157.513 1.973.055l13.873-7.792Z" fill="url(#c)"/><path d="M16.323 8.241 2.45.45C1.634 0 .912.054.477.512L12.315 12.21l4.008-3.969Z" fill="url(#d)"/></g><defs><linearGradient id="a" x1="11.269" y1="22.805" x2="-7.548" y2="17.741" gradientUnits="userSpaceOnUse"><stop stop-color="#4596D2"/><stop offset=".007" stop-color="#4597D3"/><stop offset=".26" stop-color="#3EB9EB"/><stop offset=".512" stop-color="#49C1ED"/><stop offset=".76" stop-color="#5AC3E6"/><stop offset="1" stop-color="#5EC4E4"/></linearGradient><linearGradient id="b" x1="22.698" y1="12.206" x2="-.284" y2="12.206" gradientUnits="userSpaceOnUse"><stop stop-color="#FFE006"/><stop offset=".409" stop-color="#FBBC0D"/><stop offset=".775" stop-color="#F6A316"/><stop offset="1" stop-color="#F59A1A"/></linearGradient><linearGradient id="c" x1="4.2" y1="15.887" x2="-10.67" y2="-9.439" gradientUnits="userSpaceOnUse"><stop stop-color="#E84049"/><stop offset="1" stop-color="#C40F62"/></linearGradient><linearGradient id="d" x1="-12.45" y1="24.98" x2="-5.815" y2="13.67" gradientUnits="userSpaceOnUse"><stop stop-color="#30A071"/><stop offset=".069" stop-color="#2CA771"/><stop offset=".476" stop-color="#4DB26F"/><stop offset=".801" stop-color="#5FB568"/><stop offset="1" stop-color="#63B664"/></linearGradient></defs></svg>