<svg width="14" height="21" viewBox="0 0 14 21" fill="none" xmlns="http://www.w3.org/2000/svg">
   <g clip-path="url(#clip0_4039_7107)">
      <path
         d="M6.75 14.5302C8.82 14.5302 10.5 12.8028 10.5 10.6744V4.50505C10.5 2.37662 8.82 0.6492 6.75 0.6492C4.68 0.6492 3 2.37662 3 4.50505V10.6744C3 12.8028 4.68 14.5302 6.75 14.5302ZM4.5 4.50505C4.5 3.23005 5.51 2.19154 6.75 2.19154C7.99 2.19154 9 3.23005 9 4.50505V10.6744C9 11.9494 7.99 12.9879 6.75 12.9879C5.51 12.9879 4.5 11.9494 4.5 10.6744V4.50505Z"
         fill="white" />
      <path
         d="M12.75 7.84677C12.34 7.84677 12 8.19637 12 8.61794V10.6744C12 13.6562 9.64 16.0726 6.75 16.0726C3.86 16.0726 1.5 13.6562 1.5 10.6744V8.61794C1.5 8.19637 1.16 7.84677 0.75 7.84677C0.34 7.84677 0 8.19637 0 8.61794V10.6744C0 14.2423 2.63 17.1831 6 17.5738V19.1573H4.75C4.34 19.1573 4 19.5069 4 19.9284C4 20.35 4.34 20.6996 4.75 20.6996H8.75C9.16 20.6996 9.5 20.35 9.5 19.9284C9.5 19.5069 9.16 19.1573 8.75 19.1573H7.5V17.5738C10.87 17.1933 13.5 14.2423 13.5 10.6744V8.61794C13.5 8.19637 13.16 7.84677 12.75 7.84677Z"
         fill="white" />
   </g>
   <defs>
      <clipPath id="clip0_4039_7107">
         <rect width="13.5" height="20.0504" fill="white" transform="translate(0 0.6492)" />
      </clipPath>
   </defs>
</svg>