<svg width="19" height="19" fill="none" xmlns="http://www.w3.org/2000/svg"><path d="M.85 3.315c0-.577.202-1.054.608-1.429.405-.375.932-.563 1.58-.563.638 0 1.153.185 1.547.555.406.38.608.877.608 1.489a1.82 1.82 0 0 1-.59 1.385c-.406.381-.939.571-1.599.571h-.017c-.637 0-1.153-.19-1.547-.57-.393-.382-.59-.861-.59-1.438Zm.225 15.151V6.9h3.858v11.567H1.075Zm5.995 0h3.857v-6.459c0-.404.046-.715.139-.935.162-.392.408-.724.738-.995.33-.272.744-.407 1.242-.407 1.298 0 1.947.871 1.947 2.614v6.182h3.857v-6.632c0-1.708-.406-3.004-1.217-3.887-.81-.883-1.882-1.325-3.214-1.325-1.494 0-2.658.64-3.492 1.922v.035h-.018l.018-.035V6.9H7.07c.023.37.034 1.518.034 3.446 0 1.928-.011 4.635-.034 8.121Z" fill="#fff"/></svg>