<svg width="28" height="35" fill="none" xmlns="http://www.w3.org/2000/svg"><g clip-path="url(#a)"><path d="M19.441 33H4.563C2.05 33 0 30.923 0 28.367V17.716c0-2.552 2.046-4.633 4.563-4.633h14.878c2.514 0 4.564 2.077 4.564 4.633v10.65c0 2.553-2.046 4.63-4.564 4.63V33ZM11.5 14.419c-1.792 0 1 8.261 1 10.081l1 7.173c0 1.82-10.729 0-8.937 0h14.878c1.792 0-7.439 1.82-7.439 0L10 26c0-1.82.292-10-1.5-10l3-1.581Z" fill="#0BF"/><path d="M19.441 33H4.563C2.05 33 0 30.923 0 28.367V17.716c0-2.552 2.046-4.633 4.563-4.633h14.878c2.514 0 4.564 2.077 4.564 4.633v10.65c0 2.553-2.046 4.63-4.564 4.63V33ZM4.563 14.419c-1.792 0-3.252 1.482-3.252 3.301v10.651c0 1.82 1.46 3.302 3.252 3.302h14.878c1.792 0 3.252-1.482 3.252-3.302v-10.65c0-1.82-1.46-3.302-3.252-3.302H4.563Z" fill="#172A32"/><circle cx="22.364" cy="31.364" r="1.864" fill="#D9CA21" stroke="#FFFCD8"/><path d="m10.49 26.148-3.654-3.71.926-.941 2.728 2.77 5.747-5.832.927.94-6.674 6.773ZM7.911 14.095h-1.31V9.719c0-3.022 2.42-5.485 5.397-5.485 2.977 0 5.402 2.458 5.402 5.485v4.353h-1.31V9.72c0-2.29-1.837-4.154-4.092-4.154S7.911 7.429 7.911 9.719v4.376Z" fill="#172A32"/><path d="M21.575 14.095h-1.312V9.719c0-4.624-3.706-8.388-8.26-8.388-4.555 0-8.266 3.764-8.266 8.388v4.376h-1.31V9.719C2.426 4.362 6.722 0 12.002 0s9.572 4.362 9.572 9.719v4.376Z" fill="#172A32"/></g><defs><clipPath id="a"><path fill="#fff" d="M0 0h28v35H0z"/></clipPath></defs></svg>