<svg width="22" height="17" fill="none" xmlns="http://www.w3.org/2000/svg"><path d="m11.288 16.375-4.062-.076c-1.316-.027-2.634.026-3.924-.248-1.961-.41-2.1-2.417-2.245-4.102-.2-2.367-.123-4.778.255-7.126.213-1.318 1.053-2.104 2.352-2.19 4.386-.31 8.8-.273 13.176-.128a9.31 9.31 0 0 1 1.383.168c2.25.403 2.304 2.678 2.45 4.594.145 1.935.084 3.88-.194 5.802-.223 1.592-.65 2.926-2.45 3.055-2.256.169-4.46.304-6.722.26 0-.01-.013-.01-.02-.01ZM8.9 12.345c1.7-.997 3.367-1.978 5.057-2.968-1.703-.998-3.367-1.978-5.057-2.97v5.939Z" fill="#fff"/></svg>